<?xml version="1.0" encoding="iso-8859-1"?>
<!-- Generator: Adobe Illustrator 19.0.0, SVG Export Plug-In . SVG Version: 6.00 Build 0)  -->
<svg version="1.1" id="Capa_1" xmlns="http://www.w3.org/2000/svg" xmlns:xlink="http://www.w3.org/1999/xlink" x="0px" y="0px"
	 viewBox="0 0 512.004 512.004" style="enable-background:new 0 0 512.004 512.004;" xml:space="preserve">
<g>
	<g>
		<path d="M486.328,347.463L378.319,239.454h21.283c3.864,0,7.626,1.362,10.594,3.835l41.408,34.507
			c1.402,1.168,3.104,1.738,4.797,1.738c2.149,0,4.282-0.919,5.766-2.699c2.652-3.182,2.222-7.911-0.96-10.563l-41.408-34.507
			c-5.658-4.715-12.831-7.312-20.197-7.312h-36.284l-13.657-13.657c-1.27-5.351-3.124-10.547-5.531-15.525l22.185-16.638
			c5.894-4.42,9.413-11.458,9.413-18.826v-9.392c0-2.279,0.888-4.421,2.499-6.033l43.401-43.401c2.929-2.929,2.929-7.678,0-10.606
			c-2.929-2.929-7.678-2.929-10.606,0l-43.401,43.401c-4.445,4.445-6.893,10.354-6.893,16.64v9.392c0,2.671-1.276,5.223-3.413,6.826
			l-21.009,15.756c-2.068-2.784-4.327-5.464-6.772-8.024c4.042-9.701,6.113-19.981,6.113-30.59
			c0-34.285-21.776-63.578-52.223-74.779c37.081-46.387,85.373-53.999,85.88-54.073c4.092-0.593,6.933-4.388,6.348-8.483
			c-0.586-4.101-4.39-6.953-8.485-6.364c-2.389,0.342-58.249,8.91-99.571,64.907c-3.787-0.555-7.656-0.853-11.594-0.853
			c-3.938,0-7.808,0.298-11.594,0.853c-41.322-55.996-97.182-64.565-99.57-64.906c-4.101-0.582-7.899,2.264-8.485,6.364
			c-0.585,4.101,2.264,7.899,6.364,8.485c0.505,0.072,48.637,7.45,85.866,54.07c-30.448,11.2-52.225,40.494-52.225,74.78
			c0,10.653,2.085,20.953,6.151,30.671c-2.423,2.541-4.677,5.209-6.748,7.99l-21.071-15.803c-2.137-1.603-3.413-4.154-3.413-6.826
			v-9.392c0-6.286-2.448-12.195-6.893-16.64l-43.401-43.401c-2.929-2.929-7.678-2.929-10.606,0c-2.929,2.929-2.929,7.678,0,10.606
			l43.401,43.401c1.611,1.612,2.499,3.754,2.499,6.033v9.392c0,7.368,3.519,14.405,9.413,18.826l22.223,16.667
			c-2.403,4.938-4.276,10.119-5.56,15.486l-13.666,13.666h-36.284c-7.366,0-14.539,2.597-20.197,7.312l-41.408,34.507
			c-3.182,2.652-3.612,7.381-0.96,10.563c1.483,1.78,3.617,2.699,5.766,2.699c1.693,0,3.396-0.57,4.797-1.738l41.408-34.507
			c2.968-2.473,6.73-3.835,10.594-3.835h21.284L25.678,347.463C9.121,364.02,0.002,386.033,0.002,409.449
			c0,12.801,6.474,24.504,17.317,31.306c6.014,3.772,12.797,5.679,19.615,5.678c5.476,0,10.975-1.231,16.108-3.712l53.666-25.944
			c0.676,0.926,1.424,1.818,2.248,2.665c4.577,4.705,10.54,7.183,16.709,7.183c2.962,0,5.972-0.571,8.899-1.742l5.052-2.021
			c20.678,54.292,65.954,89.142,116.385,89.142c50.525,0,95.721-34.81,116.397-89.137l5.042,2.017
			c2.927,1.17,5.936,1.742,8.898,1.742c6.168,0,12.132-2.478,16.709-7.183c0.824-0.847,1.572-1.739,2.248-2.665l53.666,25.944
			c5.134,2.482,10.631,3.712,16.108,3.712c6.817,0,13.603-1.907,19.615-5.678c10.844-6.802,17.317-18.505,17.317-31.306
			C512.003,386.033,502.885,364.019,486.328,347.463z M256.002,159.294c4.993,0,9.991,0.391,14.855,1.162
			c4.089,0.651,7.933-2.142,8.582-6.233s-2.142-7.933-6.233-8.582c-5.639-0.895-11.427-1.348-17.204-1.348
			c-23.377,0-44.819,7.373-61.455,19.592c-2.115-6.452-3.19-13.188-3.19-20.108c0.001-35.645,29-64.645,64.646-64.645
			c35.646,0,64.645,29,64.645,64.646c0,6.887-1.071,13.6-3.17,20.034c-3.06-2.238-6.3-4.325-9.711-6.245
			c-3.608-2.031-8.183-0.752-10.214,2.857c-2.031,3.609-0.753,8.183,2.857,10.214c22.712,12.784,36.271,34.208,36.271,57.309
			c0,17.128-7.484,30.397-22.244,39.437c-14.083,8.625-34.289,13.185-58.434,13.185c-24.145,0-44.351-4.559-58.434-13.185
			c-14.76-9.04-22.244-22.308-22.244-39.437C175.325,190.092,211.517,159.294,256.002,159.294z M287.499,393.055
			c-0.484-4.113-4.206-7.048-8.325-6.572c-7.336,0.863-15.132,1.301-23.171,1.301c-28.44,0-52.153-5.312-68.964-15.389l3.895-30.587
			c17.653,6.47,39.903,9.873,65.07,9.873c25.138,0,47.427-3.394,65.072-9.857l3.892,30.569c-4.603,2.754-9.763,5.179-15.403,7.219
			c-3.896,1.408-5.912,5.708-4.503,9.603c1.104,3.054,3.984,4.952,7.054,4.952c0.846,0,1.708-0.145,2.549-0.449
			c4.363-1.577,8.494-3.371,12.379-5.349c0.786,4.711,2.614,9.108,5.281,12.911c-16.67,15.25-43.448,23.579-76.32,23.579
			c-32.844,0-59.66-8.338-76.322-23.583c2.662-3.805,4.491-8.204,5.282-12.925c18.577,9.459,42.838,14.432,71.038,14.432
			c8.623,0,17.009-0.472,24.924-1.403C285.041,400.896,287.983,397.169,287.499,393.055z M192.884,326.488l5.312-41.72
			c15.249,7.033,34.727,10.799,57.807,10.799c23.08,0,42.558-3.766,57.807-10.799l5.314,41.734
			c-16.373,6.666-38.094,10.178-63.121,10.178C230.939,336.68,209.261,333.16,192.884,326.488z M104.224,393.694
			c-1.213,2.805-1.863,5.704-1.976,8.577l-55.733,26.945c-6.846,3.311-14.781,2.874-21.224-1.168
			c-6.442-4.041-10.289-10.994-10.289-18.599c0-19.409,7.558-37.656,21.282-51.379l124.301-124.301
			c0.557,6.828,2.091,13.173,4.574,18.981L104.224,393.694z M128.994,410.954c-4.923,1.968-8.351-1.012-9.285-1.973
			c-0.934-0.96-3.819-4.471-1.716-9.335l56.897-131.604c2.716,3.048,5.815,5.85,9.243,8.421l-13.868,108.908
			c-0.789,5.913-4.719,10.962-10.258,13.178L128.994,410.954z M256.003,497.003c-44.182,0-84.055-31.17-102.457-79.714l12.032-4.813
			c0.942-0.377,1.85-0.811,2.741-1.271c19.553,18.765,49.725,28.653,87.683,28.653c37.42,0,68.238-10.135,87.668-28.661
			c0.896,0.463,1.809,0.9,2.757,1.279l12.042,4.817C340.069,465.868,300.269,497.003,256.003,497.003z M486.714,428.048
			c-6.442,4.042-14.375,4.479-21.224,1.168l-55.734-26.944c-0.113-2.873-0.763-5.772-1.976-8.577l-36.54-84.519
			c-1.644-3.802-6.057-5.552-9.86-3.908c-3.802,1.644-5.552,6.059-3.908,9.86l36.54,84.519c2.103,4.864-0.782,8.375-1.716,9.335
			c-0.935,0.96-4.364,3.94-9.285,1.973l-31.014-12.406c-5.539-2.216-9.469-7.265-10.252-13.134l-13.873-108.952
			c3.428-2.572,6.526-5.373,9.243-8.421l6.48,14.988c1.225,2.833,3.987,4.526,6.888,4.526c0.993,0,2.003-0.199,2.972-0.618
			c3.802-1.644,5.552-6.059,3.908-9.86l-10.518-24.328c2.483-5.809,4.016-12.153,4.574-18.981L475.72,358.07
			c13.724,13.724,21.282,31.971,21.282,51.379C497.003,417.053,493.157,424.007,486.714,428.048z"/>
	</g>
</g>
<g>
</g>
<g>
</g>
<g>
</g>
<g>
</g>
<g>
</g>
<g>
</g>
<g>
</g>
<g>
</g>
<g>
</g>
<g>
</g>
<g>
</g>
<g>
</g>
<g>
</g>
<g>
</g>
<g>
</g>
</svg>
