<svg id="Capa_1" enable-background="new 0 0 510.81 510.81" height="512" viewBox="0 0 510.81 510.81" width="512" xmlns="http://www.w3.org/2000/svg"><path id="XMLID_777_" d="m492.774 236.158c-59.272-47.567-114.429-63.11-150.262-67.773-15.785-2.054-29.351-2.249-40.042-1.726.107-1.226.171-2.46.171-3.702 0-5.041-.933-10.209-2.656-15.22l33.773-13.702.469-.199c23.443-10.45 40.636-30.68 47.167-55.501l-29.012-7.635c-4.186 15.904-15.168 28.88-30.151 35.637l-40.094 16.267c-7.495-5.827-16.639-9.501-26.738-9.501-10.02 0-19.097 3.62-26.559 9.367l-40.08-16.141c-14.975-6.758-25.952-19.731-30.136-35.629l-29.012 7.635c6.532 24.822 23.724 45.051 47.167 55.501l34.087 13.734c-1.76 5.063-2.711 10.29-2.711 15.387 0 1.242.064 2.476.171 3.702-10.689-.522-24.251-.326-40.029 1.726-35.833 4.663-90.99 20.206-150.262 67.773-12.142 9.744-18.696 24.26-17.983 39.825.714 15.59 8.585 29.471 21.596 38.083l68.979 45.658c3.816 2.526 7.891 4.437 12.093 5.76-2.501 6.748-3.277 14.104-2.119 21.522 2.126 13.613 10.353 25.074 22.571 31.443l32.126 16.747c6.284 3.275 13.055 4.915 19.834 4.915 6.505 0 13.019-1.511 19.108-4.536 12.435-6.177 20.9-17.572 23.226-31.277l9.948-58.979c6.657 20.332 12.433 36.121 13.914 40.126l14.069 38.057 14.069-38.057c1.478-3.998 7.236-19.739 13.879-40.021l9.997 58.89c2.323 13.689 10.788 25.084 23.224 31.261 6.09 3.025 12.602 4.536 19.108 4.536 6.778 0 13.551-1.64 19.834-4.915l32.127-16.747c12.218-6.369 20.444-17.829 22.57-31.442 1.158-7.415.384-14.769-2.123-21.523 4.205-1.323 8.281-3.234 12.098-5.761l68.978-45.658c13.011-8.612 20.882-22.492 21.597-38.083.715-15.565-5.84-30.08-17.981-39.824zm-237.375-53.479c5.667 0 13.143 8.697 17.966 23.416h-35.932c4.823-14.719 12.299-23.416 17.966-23.416zm-22.82 56.033c0-.882.015-1.751.033-2.617h45.574c.018.866.033 1.735.033 2.617 0 6.281-1.171 14.702-3.116 24.342l-39.446-.188c-1.922-9.563-3.078-17.914-3.078-24.154zm22.82-95.61c6.701 0 13.105 6.369 15.845 13.22-4.965-2.371-10.277-3.643-15.845-3.643s-10.881 1.272-15.846 3.643c2.741-6.85 9.144-13.22 15.846-13.22zm-217.192 145.946c-4.931-3.264-7.915-8.527-8.186-14.439-.27-5.887 2.206-11.374 6.792-15.054 53.192-42.688 102.093-56.846 133.749-61.206 15.596-2.148 28.658-2.198 38.301-1.611-4.028 12.277-6.284 26.525-6.284 41.974 0 5.579.656 12.186 1.792 19.453l-74.081 74.15c-6.125 6.193-15.841 7.198-23.104 2.391zm149.682 110.244c-.7 4.123-3.249 7.554-6.994 9.415-3.746 1.86-8.02 1.818-11.729-.114l-32.126-16.747c-3.68-1.918-6.157-5.37-6.798-9.47-.64-4.1.667-8.142 3.543-11.046l70.776-70.891zm55.065-106.391 24.857.119c-3.779 13.763-8.164 28.06-12.412 41.165-4.26-13.143-8.658-27.485-12.445-41.284zm137.613 89.475c-.641 4.1-3.117 7.551-6.797 9.469l-32.127 16.747c-3.708 1.933-7.982 1.976-11.729.114-3.745-1.86-6.294-5.292-6.994-9.415l-16.801-98.974 70.861 70.967c2.92 2.95 4.227 6.992 3.587 11.092zm100.221-107.767c-.271 5.912-3.255 11.175-8.187 14.44l-68.978 45.658c-7.264 4.807-16.98 3.803-23.16-2.446l-74.037-74.095c1.136-7.267 1.792-13.874 1.792-19.453 0-15.465-2.262-29.726-6.298-42.012 30.866-1.886 97.37 2.902 172.075 62.855 4.587 3.679 7.063 9.166 6.793 15.053z"/><path id="XMLID_789_" d="m392.071 227.626c-22.157 0-40.183 18.025-40.183 40.182s18.025 40.182 40.183 40.182c22.156 0 40.182-18.025 40.182-40.182s-18.026-40.182-40.182-40.182zm0 50.364c-5.614 0-10.183-4.568-10.183-10.182s4.568-10.182 10.183-10.182 10.182 4.568 10.182 10.182-4.568 10.182-10.182 10.182z"/><path id="XMLID_793_" d="m159.266 267.808c0-22.157-18.025-40.182-40.182-40.182s-40.182 18.025-40.182 40.182 18.025 40.182 40.182 40.182 40.182-18.025 40.182-40.182zm-50.364 0c0-5.614 4.568-10.182 10.182-10.182s10.182 4.568 10.182 10.182-4.568 10.182-10.182 10.182-10.182-4.568-10.182-10.182z"/></svg>